<svg xmlns="http://www.w3.org/2000/svg" xmlns:xlink="http://www.w3.org/1999/xlink" preserveAspectRatio="xMidYMid" width="40" height="40" viewBox="0 0 40 40">
  <defs>
    <style>

      .cls-2 {
        fill: #7090c7;
      }
    </style>
  </defs>
  <path d="M20.000,40.000 C8.954,40.000 0.000,31.046 0.000,20.000 C0.000,8.954 8.954,0.000 20.000,0.000 C31.046,0.000 40.000,8.954 40.000,20.000 C40.000,31.046 31.046,40.000 20.000,40.000 ZM27.125,19.125 C27.125,19.125 20.875,19.125 20.875,19.125 C20.875,19.125 20.875,12.875 20.875,12.875 C20.875,12.392 20.483,12.000 20.000,12.000 C19.517,12.000 19.125,12.392 19.125,12.875 C19.125,12.875 19.125,19.125 19.125,19.125 C19.125,19.125 12.875,19.125 12.875,19.125 C12.392,19.125 12.000,19.517 12.000,20.000 C12.000,20.483 12.392,20.875 12.875,20.875 C12.875,20.875 19.125,20.875 19.125,20.875 C19.125,20.875 19.125,27.125 19.125,27.125 C19.125,27.608 19.517,28.000 20.000,28.000 C20.483,28.000 20.875,27.608 20.875,27.125 C20.875,27.125 20.875,20.875 20.875,20.875 C20.875,20.875 27.125,20.875 27.125,20.875 C27.608,20.875 28.000,20.483 28.000,20.000 C28.000,19.517 27.608,19.125 27.125,19.125 Z" id="path-1" class="cls-2" fill-rule="evenodd"/>
</svg>
