<?xml version="1.0" encoding="utf-8"?>
<!-- Generator: Adobe Illustrator 19.0.1, SVG Export Plug-In . SVG Version: 6.00 Build 0)  -->
<svg version="1.1" id="Layer_1" xmlns="http://www.w3.org/2000/svg" xmlns:xlink="http://www.w3.org/1999/xlink" x="0px" y="0px"
	 viewBox="0 0 10.1 11.1" style="enable-background:new 0 0 10.1 11.1;" xml:space="preserve">
<style type="text/css">
	.st0{fill:#010101;}
</style>
<g>
	<path class="st0" d="M9.7,8.9L6.8,5.5l2.9-3.4c0.5-0.5,0.5-1.3,0-1.8c-0.5-0.5-1.3-0.5-1.8,0L5.1,3.6L2.3,0.4
		C1.8-0.1,1-0.1,0.5,0.4C0,0.9,0,1.7,0.5,2.2l2.9,3.4L0.5,8.9C0,9.4,0,10.2,0.5,10.7c0.5,0.5,1.3,0.5,1.8,0l2.8-3.2l2.8,3.2
		c0.5,0.5,1.3,0.5,1.8,0C10.2,10.2,10.2,9.4,9.7,8.9z"/>
</g>
</svg>
