<svg xmlns="http://www.w3.org/2000/svg" xmlns:xlink="http://www.w3.org/1999/xlink" preserveAspectRatio="xMidYMid" width="40" height="40" viewBox="0 0 40 40">
  <defs>
    <style>

      .cls-2 {
        fill: #d0cee1;
      }
    </style>
  </defs>
  <path d="M20.000,40.000 C8.954,40.000 -0.000,31.046 -0.000,20.000 C-0.000,8.954 8.954,-0.000 20.000,-0.000 C31.046,-0.000 40.000,8.954 40.000,20.000 C40.000,31.046 31.046,40.000 20.000,40.000 ZM13.575,19.840 C12.105,19.840 10.909,21.209 10.909,22.891 C10.909,23.495 11.062,24.071 11.348,24.564 C9.369,25.134 9.128,26.238 9.102,26.429 C9.102,26.429 9.102,27.314 9.102,27.314 C9.102,28.023 10.139,29.039 10.864,29.039 C10.864,29.039 16.286,29.039 16.286,29.039 C17.011,29.039 18.049,28.023 18.049,27.314 C18.049,27.314 18.043,26.366 18.043,26.366 C18.021,26.232 17.781,25.134 15.803,24.564 C16.088,24.071 16.241,23.495 16.241,22.891 C16.241,21.209 15.045,19.840 13.575,19.840 ZM24.466,14.636 C24.444,14.501 24.204,13.402 22.225,12.833 C22.511,12.340 22.664,11.764 22.664,11.160 C22.664,9.478 21.468,8.108 19.998,8.108 C18.528,8.108 17.332,9.478 17.332,11.160 C17.332,11.764 17.485,12.340 17.770,12.833 C15.791,13.402 15.551,14.507 15.524,14.699 C15.524,14.699 15.524,15.583 15.524,15.583 C15.524,16.292 16.562,17.308 17.287,17.308 C17.287,17.308 22.709,17.308 22.709,17.308 C23.434,17.308 24.471,16.292 24.471,15.583 C24.471,15.583 24.466,14.636 24.466,14.636 ZM30.889,26.366 C30.867,26.232 30.627,25.134 28.648,24.564 C28.934,24.071 29.087,23.495 29.087,22.891 C29.087,21.209 27.890,19.840 26.421,19.840 C24.951,19.840 23.754,21.209 23.754,22.891 C23.754,23.495 23.908,24.071 24.193,24.564 C22.214,25.134 21.974,26.238 21.947,26.429 C21.947,26.429 21.947,27.314 21.947,27.314 C21.947,28.023 22.985,29.039 23.709,29.039 C23.709,29.039 29.132,29.039 29.132,29.039 C29.856,29.039 30.894,28.023 30.894,27.314 C30.894,27.314 30.889,26.366 30.889,26.366 ZM24.161,27.358 C24.050,27.358 23.785,27.279 23.664,27.209 C23.664,27.209 23.664,26.616 23.664,26.616 C24.237,26.198 25.269,25.943 26.421,25.943 C27.572,25.943 28.605,26.198 29.177,26.616 C29.177,26.616 29.177,27.209 29.177,27.209 C29.056,27.279 28.792,27.358 28.680,27.358 C28.680,27.358 24.161,27.358 24.161,27.358 ZM26.421,24.262 C25.906,24.262 25.472,23.634 25.472,22.891 C25.472,22.148 25.906,21.521 26.421,21.521 C26.935,21.521 27.369,22.148 27.369,22.891 C27.369,23.634 26.935,24.262 26.421,24.262 ZM17.738,15.627 C17.627,15.627 17.363,15.549 17.242,15.478 C17.242,15.478 17.242,14.885 17.242,14.885 C17.813,14.467 18.846,14.212 19.998,14.212 C21.150,14.212 22.182,14.467 22.754,14.885 C22.754,14.885 22.754,15.478 22.754,15.478 C22.633,15.549 22.369,15.627 22.257,15.627 C22.257,15.627 17.738,15.627 17.738,15.627 ZM19.998,12.531 C19.483,12.531 19.049,11.904 19.049,11.160 C19.049,10.417 19.483,9.789 19.998,9.789 C20.512,9.789 20.947,10.417 20.947,11.160 C20.947,11.904 20.512,12.531 19.998,12.531 ZM16.331,27.209 C16.210,27.279 15.946,27.358 15.834,27.358 C15.834,27.358 11.316,27.358 11.316,27.358 C11.204,27.358 10.939,27.279 10.819,27.209 C10.819,27.209 10.819,26.616 10.819,26.616 C11.391,26.198 12.424,25.943 13.575,25.943 C14.726,25.943 15.759,26.198 16.331,26.616 C16.331,26.616 16.331,27.209 16.331,27.209 ZM13.575,24.262 C13.061,24.262 12.626,23.634 12.626,22.891 C12.626,22.148 13.061,21.521 13.575,21.521 C14.090,21.521 14.524,22.148 14.524,22.891 C14.524,23.634 14.090,24.262 13.575,24.262 Z" id="path-1" class="cls-2" fill-rule="evenodd"/>
</svg>
