<?xml version="1.0" encoding="utf-8"?>
<!-- Generator: Adobe Illustrator 19.0.1, SVG Export Plug-In . SVG Version: 6.00 Build 0)  -->
<svg version="1.1" id="Layer_1" xmlns="http://www.w3.org/2000/svg" xmlns:xlink="http://www.w3.org/1999/xlink" x="0px" y="0px"
	 viewBox="0 0 15 10.7" style="enable-background:new 0 0 15 10.7;" xml:space="preserve">
<style type="text/css">
	.st0{fill:#010101;}
</style>
<g>
	<path class="st0" d="M13.9,4.3H1.1C0.5,4.3,0,4.8,0,5.4c0,0.6,0.5,1.1,1.1,1.1h12.9c0.6,0,1.1-0.5,1.1-1.1
		C15,4.8,14.5,4.3,13.9,4.3z M1.1,2.1h12.9c0.6,0,1.1-0.5,1.1-1.1C15,0.5,14.5,0,13.9,0H1.1C0.5,0,0,0.5,0,1.1
		C0,1.7,0.5,2.1,1.1,2.1z M13.9,8.6H1.1C0.5,8.6,0,9.1,0,9.6c0,0.6,0.5,1.1,1.1,1.1h12.9c0.6,0,1.1-0.5,1.1-1.1
		C15,9.1,14.5,8.6,13.9,8.6z"/>
</g>
</svg>
