<?xml version="1.0" encoding="utf-8"?>
<!-- Generator: Adobe Illustrator 19.0.1, SVG Export Plug-In . SVG Version: 6.00 Build 0)  -->
<svg version="1.1" id="Layer_1" xmlns="http://www.w3.org/2000/svg" xmlns:xlink="http://www.w3.org/1999/xlink" x="0px" y="0px"
	 viewBox="0 0 120 177.4" style="enable-background:new 0 0 120 177.4;" xml:space="preserve">
<style type="text/css">
	.st0{fill:#9BA7B7;}
	.st1{fill:#77B882;}
	.st2{fill:#009444;}
</style>
<g>
	<polygon class="st0" points="67.4,97.9 67.4,97.9 110.4,0 57.7,84.1 	"/>
	<path class="st1" d="M34,165.3c-5.9,3.4-13.4,1.3-16.8-4.6c-3.4-5.9-1.3-13.4,4.6-16.8c5.9-3.4,13.4-1.3,16.8,4.6
		C41.9,154.4,39.9,161.9,34,165.3 M45.7,140.4l10-18.5l-7.5-13.1l-2.7-6l-15.6,29c-8.8-0.8-17.6,3.6-22.1,11.9
		c-6,11.1-1.8,24.9,9.3,30.9c11.1,6,24.9,1.8,30.9-9.3C52.4,157.1,51.2,147.3,45.7,140.4"/>
	<path class="st1" d="M92.7,164.6c-5.9,3.4-13.4,1.3-16.8-4.6c-3.4-5.9-1.3-13.4,4.6-16.8c5.9-3.4,13.4-1.3,16.8,4.6
		C100.7,153.7,98.6,161.3,92.7,164.6 M59.8,106.9c-1.1,0.7-2.5,0.7-3.6,0.2l4.6-6.7c0.2,0.2,0.4,0.5,0.6,0.8
		C62.5,103.2,61.8,105.7,59.8,106.9 M54.7,106c-0.2-0.2-0.4-0.5-0.5-0.7c-1.1-2-0.4-4.5,1.6-5.7c1.1-0.6,2.4-0.7,3.6-0.3L54.7,106z
		 M118.6,158c2.4-4.4,1.6-8.2-0.6-8.1c-2.2,0.1-3.7,8.8-9.2,9.2c1.3-5.4,0.6-11.3-2.4-16.5c-4.7-8.2-13.6-12.4-22.4-11.4L65.7,99
		L0-0.2l50.1,108.1l18.4,32.2c-5.3,7-6.3,16.9-1.6,25c6.2,10.9,20.1,14.8,31.1,8.5C98.9,173.1,112.2,169.8,118.6,158"/>
	<polygon class="st1" points="110.4,0 57.7,84.1 67.4,97.9 67.4,97.9 	"/>
</g>
</svg>
