<?xml version="1.0" encoding="utf-8"?>
<!-- Generator: Adobe Illustrator 19.0.1, SVG Export Plug-In . SVG Version: 6.00 Build 0)  -->
<svg version="1.1" id="Layer_1" xmlns="http://www.w3.org/2000/svg" xmlns:xlink="http://www.w3.org/1999/xlink" x="0px" y="0px"
	 viewBox="0 0 16 16" style="enable-background:new 0 0 16 16;" xml:space="preserve">
<style type="text/css">
	.st0{fill:#010101;}
</style>
<g>
	<path class="st0" d="M15.6,13.5l-3.8-3.8c0.6-0.9,0.9-2.1,0.9-3.3C12.7,3,9.7,0,6.3,0C2.8,0,0,2.8,0,6.3s3,6.5,6.5,6.5
		c1.2,0,2.2-0.3,3.2-0.9l3.8,3.8c0.4,0.4,1,0.4,1.4,0l1-1C16.2,14.4,16,13.9,15.6,13.5z M1.9,6.3c0-2.4,1.9-4.3,4.3-4.3
		c2.4,0,4.5,2.1,4.5,4.5c0,2.4-1.9,4.3-4.3,4.3C4.1,10.8,1.9,8.7,1.9,6.3z"/>
</g>
</svg>
