<?xml version="1.0" encoding="utf-8"?>
<!-- Generator: Adobe Illustrator 19.0.1, SVG Export Plug-In . SVG Version: 6.00 Build 0)  -->
<svg version="1.1" id="Layer_1" xmlns="http://www.w3.org/2000/svg" xmlns:xlink="http://www.w3.org/1999/xlink" x="0px" y="0px"
	 viewBox="-350.4 407 16 16" style="enable-background:new -350.4 407 16 16;" xml:space="preserve">
<style type="text/css">
	.st0{fill:#010101;}
</style>
<path class="st0" d="M-348.1,419.8h-1.1c-0.6,0-1.1,0.7-1.1,1.6s0.5,1.6,1.1,1.6h1.1c0.6,0,1.1-0.7,1.1-1.6
	S-347.5,419.8-348.1,419.8z M-348.1,413.4h-1.1c-0.6,0-1.1,0.7-1.1,1.6c0,0.9,0.5,1.6,1.1,1.6h1.1c0.6,0,1.1-0.7,1.1-1.6
	C-347,414.1-347.5,413.4-348.1,413.4z M-348.1,407h-1.1c-0.6,0-1.1,0.7-1.1,1.6s0.5,1.6,1.1,1.6h1.1c0.6,0,1.1-0.7,1.1-1.6
	S-347.5,407-348.1,407z M-343.5,410.2h8c0.6,0,1.1-0.7,1.1-1.6s-0.5-1.6-1.1-1.6h-8c-0.6,0-1.1,0.7-1.1,1.6
	S-344.2,410.2-343.5,410.2z M-335.5,413.4h-8c-0.6,0-1.1,0.7-1.1,1.6c0,0.9,0.5,1.6,1.1,1.6h8c0.6,0,1.1-0.7,1.1-1.6
	C-334.4,414.1-334.9,413.4-335.5,413.4z M-335.5,419.8h-8c-0.6,0-1.1,0.7-1.1,1.6s0.5,1.6,1.1,1.6h8c0.6,0,1.1-0.7,1.1-1.6
	S-334.9,419.8-335.5,419.8z"/>
</svg>
