<svg xmlns="http://www.w3.org/2000/svg" xmlns:xlink="http://www.w3.org/1999/xlink" preserveAspectRatio="xMidYMid" width="40" height="40" viewBox="0 0 40 40">
  <defs>
    <style>

      .cls-2 {
        fill: #d0cee1;
      }
    </style>
  </defs>
  <path d="M20.000,0.000 C31.046,0.000 40.000,8.954 40.000,20.000 C40.000,31.046 31.046,40.000 20.000,40.000 C8.954,40.000 0.000,31.046 0.000,20.000 C0.000,8.954 8.954,0.000 20.000,0.000 ZM28.000,28.000 C28.000,28.000 13.000,28.000 13.000,28.000 C11.895,28.000 11.000,27.105 11.000,26.000 C11.000,26.000 11.000,16.000 11.000,16.000 C11.000,14.895 11.895,14.000 13.000,14.000 C13.000,14.000 13.000,11.000 13.000,11.000 C13.000,9.895 13.895,9.000 15.000,9.000 C15.000,9.000 28.000,14.000 28.000,14.000 C29.105,14.000 30.000,14.895 30.000,16.000 C30.000,16.000 30.000,26.000 30.000,26.000 C30.000,27.105 29.105,28.000 28.000,28.000 ZM16.000,11.281 C15.448,11.281 15.000,11.729 15.000,12.281 C15.000,12.281 15.000,14.000 15.000,14.000 C15.000,14.000 23.000,14.000 23.000,14.000 C23.000,14.000 16.000,11.281 16.000,11.281 ZM28.000,17.000 C28.000,16.448 27.552,16.000 27.000,16.000 C27.000,16.000 14.000,16.000 14.000,16.000 C13.448,16.000 13.000,16.448 13.000,17.000 C13.000,17.000 13.000,25.000 13.000,25.000 C13.000,25.552 13.448,26.000 14.000,26.000 C14.000,26.000 27.000,26.000 27.000,26.000 C27.552,26.000 28.000,25.552 28.000,25.000 C28.000,25.000 28.000,17.000 28.000,17.000 ZM16.500,22.000 C16.500,22.000 15.500,22.000 15.500,22.000 C15.224,22.000 15.000,21.776 15.000,21.500 C15.000,21.500 15.000,20.500 15.000,20.500 C15.000,20.224 15.224,20.000 15.500,20.000 C15.500,20.000 16.500,20.000 16.500,20.000 C16.776,20.000 17.000,20.224 17.000,20.500 C17.000,20.500 17.000,21.500 17.000,21.500 C17.000,21.776 16.776,22.000 16.500,22.000 Z" id="path-1" class="cls-2" fill-rule="evenodd"/>
</svg>
