<?xml version="1.0" encoding="utf-8"?>
<!-- Generator: Adobe Illustrator 19.0.1, SVG Export Plug-In . SVG Version: 6.00 Build 0)  -->
<svg version="1.1" id="Layer_1" xmlns="http://www.w3.org/2000/svg" xmlns:xlink="http://www.w3.org/1999/xlink" x="0px" y="0px"
	 viewBox="-285.9 412.9 18.2 16" style="enable-background:new -285.9 412.9 18.2 16;" xml:space="preserve">
<style type="text/css">
	.st0{fill:#010101;}
</style>
<g>
	<path class="st0" d="M-267.6,428.9c0,0,0-3.5-0.3-3.8c-0.4-0.5-1.1-0.9-2.4-1.4c-1.3-0.5-1.8-1.1-1.8-2c0-0.6,0.4-0.4,0.6-1.5
		c0.1-0.4,0.4,0,0.5-1.1c0-0.4-0.2-0.5-0.2-0.5s0.1-0.6,0.2-1.1c0.1-0.6-0.3-2.1-2.1-2.1s-2.2,1.5-2.1,2.1c0,0.4,0.2,1.1,0.2,1.1
		s-0.2,0.1-0.2,0.5c-0.2,1,0.2,0.5,0.3,1c0.2,1.2,0.6,0.9,0.6,1.5c0,0.7-0.2,1.2-0.7,1.5c2.9,1.5,3.4,1.8,3.4,3.1v2.7L-267.6,428.9
		L-267.6,428.9z M-276.5,424.2c-1.8-0.7-2.4-1.4-2.4-2.8c0-0.8,0.5-0.5,0.8-2c0.1-0.6,0.6,0,0.7-1.4c0-0.5-0.3-0.7-0.3-0.7
		s0.2-0.8,0.2-1.5c0-0.8-0.4-2.8-2.9-2.8s-2.9,2-2.9,2.8c0.1,0.6,0.2,1.5,0.2,1.5s-0.3,0.1-0.3,0.7c0.1,1.4,0.5,0.8,0.7,1.4
		c0.3,1.5,0.8,1.2,0.8,2c0,1.3-0.5,2-2.4,2.8c-0.5,0.2-1.5,0.5-1.5,1.4v3.3h12.6c0,0,0-2,0-2.5
		C-273.2,425.6-274.8,424.9-276.5,424.2z"/>
</g>
</svg>
