<?xml version="1.0" encoding="utf-8"?>
<!-- Generator: Adobe Illustrator 19.0.1, SVG Export Plug-In . SVG Version: 6.00 Build 0)  -->
<svg version="1.1" id="Layer_1" xmlns="http://www.w3.org/2000/svg" xmlns:xlink="http://www.w3.org/1999/xlink" x="0px" y="0px"
	 viewBox="0 0 16 16" style="enable-background:new 0 0 16 16;" xml:space="preserve">
<style type="text/css">
	.st0{fill:#010101;}
</style>
<g>
	<path class="st0" d="M14.5,8c0-1,0.6-1.8,1.5-2.3c-0.2-0.6-0.4-1.1-0.7-1.6c-1,0.3-1.9-0.1-2.6-0.8c-0.7-0.7-0.9-1.5-0.7-2.6
		c-0.5-0.3-1-0.5-1.6-0.7C10,0.9,9,1.5,8,1.5C7,1.5,6,0.9,5.5,0C4.9,0.1,4.4,0.4,3.9,0.6c0.3,1,0.1,1.9-0.7,2.6
		C2.5,3.9,1.7,4.3,0.7,4.1C0.4,4.6,0.2,5.1,0,5.6C0.9,6.2,1.5,7,1.5,8s-0.6,2-1.5,2.5c0.2,0.6,0.4,1.1,0.7,1.6
		c1-0.3,1.9-0.1,2.6,0.7c0.7,0.7,0.9,1.5,0.7,2.6c0.5,0.3,1,0.5,1.6,0.7C6,15,7,14.4,8,14.4c1,0,2,0.6,2.5,1.5
		c0.6-0.2,1.1-0.4,1.6-0.7c-0.3-1-0.1-1.9,0.6-2.6c0.7-0.7,1.5-1.1,2.6-0.8c0.3-0.5,0.5-1,0.7-1.6C15.1,9.8,14.5,9,14.5,8z M8,11.5
		c-1.9,0-3.5-1.6-3.5-3.5c0-1.9,1.6-3.5,3.5-3.5c1.9,0,3.5,1.6,3.5,3.5C11.5,9.9,9.9,11.5,8,11.5z"/>
</g>
</svg>
