<svg xmlns="http://www.w3.org/2000/svg" xmlns:xlink="http://www.w3.org/1999/xlink" preserveAspectRatio="xMidYMid" width="40" height="40" viewBox="0 0 40 40">
  <defs>
    <style>

      .cls-2 {
        fill: #7090c7;
      }
    </style>
  </defs>
  <path d="M20.000,40.000 C8.954,40.000 -0.000,31.046 -0.000,20.000 C-0.000,8.954 8.954,0.000 20.000,0.000 C31.046,0.000 40.000,8.954 40.000,20.000 C40.000,31.046 31.046,40.000 20.000,40.000 ZM19.991,11.011 C15.030,11.011 10.994,14.559 10.994,18.921 C10.994,20.667 11.625,22.314 12.797,23.675 C12.645,23.823 12.471,23.965 12.305,24.100 C11.786,24.524 10.820,25.313 11.184,26.579 C11.184,26.579 11.419,27.394 11.419,27.394 C11.419,27.394 12.214,27.711 12.214,27.711 C12.704,27.907 13.268,28.006 13.891,28.006 C15.601,28.006 17.585,27.253 18.713,26.754 C19.131,26.805 19.559,26.831 19.991,26.831 C24.952,26.831 28.989,23.282 28.989,18.921 C28.989,14.559 24.952,11.011 19.991,11.011 ZM19.991,25.097 C19.465,25.097 18.948,25.051 18.454,24.961 C18.032,25.163 15.663,26.272 13.891,26.272 C13.516,26.272 13.168,26.222 12.870,26.104 C12.740,25.651 14.643,24.983 14.938,23.340 C13.587,22.218 12.747,20.655 12.747,18.921 C12.747,15.510 15.990,12.744 19.991,12.744 C23.992,12.744 27.236,15.510 27.236,18.921 C27.236,22.332 23.992,25.097 19.991,25.097 Z" id="path-1" class="cls-2" fill-rule="evenodd"/>
</svg>
