<svg xmlns="http://www.w3.org/2000/svg" xmlns:xlink="http://www.w3.org/1999/xlink" preserveAspectRatio="xMidYMid" width="40" height="40" viewBox="0 0 40 40">
  <defs>
    <style>

      .cls-2 {
        fill: #7090c7;
      }
    </style>
  </defs>
  <path d="M20.000,0.000 C31.046,0.000 40.000,8.954 40.000,20.000 C40.000,31.046 31.046,40.000 20.000,40.000 C8.954,40.000 0.000,31.046 0.000,20.000 C0.000,8.954 8.954,0.000 20.000,0.000 ZM26.000,29.000 C26.000,29.000 14.000,29.000 14.000,29.000 C12.895,29.000 11.000,27.105 11.000,26.000 C11.000,26.000 11.000,24.000 11.000,24.000 C11.000,24.000 11.421,21.381 16.564,20.342 C15.605,19.248 15.000,17.713 15.000,16.000 C15.000,12.686 17.239,10.000 20.000,10.000 C22.761,10.000 25.000,12.686 25.000,16.000 C25.000,17.713 24.395,19.248 23.436,20.342 C28.579,21.381 29.000,24.000 29.000,24.000 C29.000,24.000 29.000,26.000 29.000,26.000 C29.000,27.105 27.105,29.000 26.000,29.000 ZM20.000,12.000 C18.343,12.000 17.000,13.791 17.000,16.000 C17.000,18.209 18.343,20.000 20.000,20.000 C21.657,20.000 23.000,18.209 23.000,16.000 C23.000,13.791 21.657,12.000 20.000,12.000 ZM27.000,25.000 C27.000,25.000 27.000,24.000 27.000,24.000 C25.715,22.819 23.189,22.000 20.000,22.000 C16.811,22.000 14.285,22.819 13.000,24.000 C13.000,24.000 13.000,25.000 13.000,25.000 C13.000,25.000 13.000,26.000 13.000,26.000 C13.000,26.552 14.448,27.000 15.000,27.000 C15.000,27.000 25.000,27.000 25.000,27.000 C25.552,27.000 27.000,26.552 27.000,26.000 C27.000,26.000 27.000,25.000 27.000,25.000 Z" id="path-1" class="cls-2" fill-rule="evenodd"/>
</svg>
