<svg xmlns="http://www.w3.org/2000/svg" xmlns:xlink="http://www.w3.org/1999/xlink" preserveAspectRatio="xMidYMid" width="40" height="40" viewBox="0 0 40 40">
  <defs>
    <style>

      .cls-2 {
        fill: #c4e9d7;
      }
    </style>
  </defs>
  <path d="M20.000,40.000 C8.954,40.000 0.000,31.046 0.000,20.000 C0.000,8.954 8.954,0.000 20.000,0.000 C31.046,0.000 40.000,8.954 40.000,20.000 C40.000,31.046 31.046,40.000 20.000,40.000 ZM25.981,13.000 C25.981,13.000 17.209,23.169 17.209,23.169 C17.209,23.169 14.000,20.000 14.000,20.000 C14.000,20.000 12.000,22.000 12.000,22.000 C12.000,22.000 17.213,27.000 17.213,27.000 C17.213,27.000 28.000,15.000 28.000,15.000 C28.000,15.000 25.981,13.000 25.981,13.000 Z" id="path-1" class="cls-2" fill-rule="evenodd"/>
</svg>
