<?xml version="1.0" encoding="utf-8"?>
<!-- Generator: Adobe Illustrator 19.0.1, SVG Export Plug-In . SVG Version: 6.00 Build 0)  -->
<svg version="1.1" id="Layer_1" xmlns="http://www.w3.org/2000/svg" xmlns:xlink="http://www.w3.org/1999/xlink" x="0px" y="0px"
	 viewBox="0 0 10.3 16" style="enable-background:new 0 0 10.3 16;" xml:space="preserve">
<style type="text/css">
	.st0{fill:#010101;}
</style>
<g>
	<path class="st0" d="M8.8,1.1C7.8,0.4,6.5,0,5,0C3.8,0,2.8,0.3,2,0.8C0.8,1.6,0.1,2.9,0,4.9h2.9c0-0.6,0.2-1.1,0.5-1.6
		c0.3-0.5,0.9-0.8,1.7-0.8c0.8,0,1.3,0.2,1.6,0.6C7,3.5,7.2,4,7.2,4.5C7.2,5,7,5.4,6.7,5.7C6.6,6,6.4,6.2,6.1,6.3c0,0-1.6,1-2.3,1.8
		c-0.4,0.5-0.4,1.2-0.5,2.2c0,0.1,0,0.2,0.3,0.2s2.1,0,2.3,0s0.3-0.2,0.3-0.2c0-0.4,0.1-0.6,0.1-0.8c0.1-0.4,0.5-0.8,0.9-1.1L8,8
		c0.7-0.6,1.3-1,1.6-1.4C10,6,10.3,5.2,10.3,4.3C10.3,2.9,9.8,1.8,8.8,1.1z M4.9,12.4c-1,0-1.8,0.7-1.9,1.8C3,15.2,3.8,16,4.8,16
		c1.1,0,1.9-0.6,1.9-1.7C6.8,13.2,6,12.4,4.9,12.4z"/>
</g>
</svg>
