<svg xmlns="http://www.w3.org/2000/svg" xmlns:xlink="http://www.w3.org/1999/xlink" preserveAspectRatio="xMidYMid" width="40" height="40" viewBox="0 0 40 40">
  <defs>
    <style>

      .cls-2 {
        fill: #d0cee1;
      }
    </style>
  </defs>
  <path d="M20.000,0.000 C31.046,0.000 40.000,8.954 40.000,20.000 C40.000,31.046 31.046,40.000 20.000,40.000 C8.954,40.000 0.000,31.046 0.000,20.000 C0.000,8.954 8.954,0.000 20.000,0.000 ZM20.000,30.000 C14.477,30.000 10.000,25.523 10.000,20.000 C10.000,14.477 14.477,10.000 20.000,10.000 C25.523,10.000 30.000,14.477 30.000,20.000 C30.000,25.523 25.523,30.000 20.000,30.000 ZM20.000,12.000 C15.582,12.000 12.000,15.582 12.000,20.000 C12.000,24.418 15.582,28.000 20.000,28.000 C24.418,28.000 28.000,24.418 28.000,20.000 C28.000,15.582 24.418,12.000 20.000,12.000 ZM23.232,23.866 C23.232,23.866 20.000,22.000 20.000,22.000 C19.724,22.000 19.000,21.276 19.000,21.000 C19.000,21.000 19.000,15.000 19.000,15.000 C19.000,14.724 19.724,14.000 20.000,14.000 C20.276,14.000 21.000,14.724 21.000,15.000 C21.000,15.000 21.000,20.268 21.000,20.268 C21.000,20.268 24.232,22.134 24.232,22.134 C24.471,22.272 24.736,23.261 24.598,23.500 C24.460,23.739 23.471,24.004 23.232,23.866 Z" id="path-1" class="cls-2" fill-rule="evenodd"/>
</svg>
